<svg xmlns="http://www.w3.org/2000/svg" viewBox="0 0 32 32" width="32" height="32">
  <defs>
    <linearGradient id="grad1" x1="0%" y1="0%" x2="100%" y2="100%">
      <stop offset="0%" style="stop-color:#0389ff;stop-opacity:1" />
      <stop offset="100%" style="stop-color:#1f5f99;stop-opacity:1" />
    </linearGradient>
  </defs>
  
  <!-- Background circle -->
  <circle cx="16" cy="16" r="15" fill="url(#grad1)" stroke="#fff" stroke-width="1"/>
  
  <!-- Data visualization chart bars -->
  <rect x="6" y="20" width="2.5" height="6" fill="#fff" opacity="0.9"/>
  <rect x="10" y="16" width="2.5" height="10" fill="#fff" opacity="0.9"/>
  <rect x="14" y="12" width="2.5" height="14" fill="#fff" opacity="0.9"/>
  <rect x="18" y="14" width="2.5" height="12" fill="#fff" opacity="0.9"/>
  <rect x="22" y="10" width="2.5" height="16" fill="#fff" opacity="0.9"/>
  
  <!-- Trend line -->
  <path d="M 6 22 Q 12 18 18 14 Q 22 12 26 10" stroke="#fff" stroke-width="1.5" fill="none" opacity="0.8"/>
  
  <!-- Data points -->
  <circle cx="7" cy="22" r="1.2" fill="#fff"/>
  <circle cx="11" cy="19" r="1.2" fill="#fff"/>
  <circle cx="15" cy="16" r="1.2" fill="#fff"/>
  <circle cx="19" cy="17" r="1.2" fill="#fff"/>
  <circle cx="23" cy="13" r="1.2" fill="#fff"/>
  
  <!-- Small accent elements -->
  <rect x="4" y="8" width="1" height="1" fill="#fff" opacity="0.6"/>
  <rect x="26" y="6" width="1" height="1" fill="#fff" opacity="0.6"/>
  <rect x="28" y="20" width="1" height="1" fill="#fff" opacity="0.6"/>
</svg>